<?xml version="1.0" encoding="utf-8"?>
<!-- Generator: Adobe Illustrator 15.0.0, SVG Export Plug-In . SVG Version: 6.00 Build 0)  -->
<!DOCTYPE svg PUBLIC "-//W3C//DTD SVG 1.1//EN" "http://www.w3.org/Graphics/SVG/1.1/DTD/svg11.dtd">
<svg version="1.1" id="レイヤー_1" xmlns="http://www.w3.org/2000/svg" xmlns:xlink="http://www.w3.org/1999/xlink" x="0px"
	 y="0px" width="457.895px" height="65.263px" viewBox="0 0 457.895 65.263" enable-background="new 0 0 457.895 65.263"
	 xml:space="preserve">
<g>
	<g>
		<g>
			<g>
				<path fill="#717071" d="M209.207,52.073c0-1.872-0.036-2.143-1.098-2.268l-0.288-0.037c-0.108-0.071-0.072-0.396,0.036-0.449
					c0.774,0.035,1.386,0.054,2.124,0.054h3.385c1.152,0,2.215,0,2.431-0.054c0.108,0.306,0.216,1.602,0.288,2.395
					c-0.072,0.107-0.36,0.145-0.45,0.036c-0.271-0.847-0.433-1.477-1.369-1.711c-0.378-0.09-0.955-0.108-1.747-0.108h-1.296
					c-0.54,0-0.54,0.037-0.54,0.721v3.602c0,0.504,0.054,0.504,0.594,0.504h1.044c0.756,0,1.314-0.036,1.531-0.108
					c0.216-0.071,0.342-0.18,0.432-0.63l0.144-0.738c0.09-0.108,0.396-0.108,0.468,0.018c0,0.433-0.072,1.135-0.072,1.818
					c0,0.648,0.072,1.333,0.072,1.729c-0.072,0.127-0.378,0.127-0.468,0.019l-0.162-0.702c-0.072-0.324-0.198-0.594-0.558-0.685
					c-0.252-0.071-0.685-0.09-1.387-0.09h-1.044c-0.54,0-0.594,0.019-0.594,0.486v2.538c0,0.955,0.054,1.567,0.342,1.873
					c0.216,0.217,0.594,0.414,2.178,0.414c1.386,0,1.909-0.072,2.305-0.27c0.324-0.181,0.81-0.811,1.279-1.747
					c0.126-0.09,0.378-0.036,0.45,0.126c-0.126,0.631-0.576,2.017-0.81,2.503c-1.621-0.036-3.223-0.054-4.825-0.054h-1.621
					c-0.774,0-1.386,0.018-2.448,0.054c-0.108-0.054-0.145-0.342-0.036-0.45l0.594-0.054c1.026-0.091,1.116-0.36,1.116-2.251V52.073
					z"/>
				<path fill="#717071" d="M221.302,55.945c-0.27-0.667-0.432-1.243-1.081-1.333l-0.36-0.054c-0.108-0.144-0.09-0.396,0.054-0.45
					c0.45,0.036,1.08,0.055,1.692,0.055c0.486,0,0.846-0.019,1.458-0.055c0.126,0.072,0.144,0.36,0.018,0.45l-0.216,0.036
					c-0.558,0.09-0.576,0.18-0.396,0.721c0.414,1.242,0.937,2.502,1.351,3.438c0.162,0.36,0.234,0.522,0.288,0.576
					c0.072-0.054,0.198-0.306,0.342-0.685c0.234-0.611,0.846-2.178,1.026-2.646c0.252-0.63,0.324-1.008,0.324-1.116
					c0-0.162-0.108-0.234-0.324-0.271l-0.414-0.054c-0.108-0.126-0.09-0.378,0.036-0.45c0.558,0.036,1.008,0.055,1.35,0.055
					c0.45,0,0.756-0.019,1.26-0.055c0.126,0.072,0.145,0.342,0.036,0.45l-0.27,0.036c-0.63,0.09-0.792,0.559-1.314,1.566
					c-0.252,0.486-1.368,3.097-1.656,3.835c-0.18,0.45-0.36,0.864-0.594,1.477c-0.036,0.054-0.108,0.072-0.18,0.072
					c-0.09,0-0.18-0.019-0.234-0.072c-0.144-0.504-0.414-1.206-0.685-1.872L221.302,55.945z"/>
				<path fill="#717071" d="M232.572,56.647c-0.468,0-0.486,0.035-0.486,0.486c0,1.818,1.062,3.367,2.989,3.367
					c0.594,0,1.098-0.181,1.656-0.883c0.18-0.055,0.306,0.054,0.324,0.216c-0.594,1.225-1.891,1.675-2.827,1.675
					c-1.17,0-2.088-0.504-2.61-1.188c-0.541-0.702-0.757-1.548-0.757-2.341c0-2.215,1.459-4.069,3.619-4.069
					c1.549,0,2.557,1.062,2.557,2.143c0,0.253-0.036,0.396-0.072,0.469c-0.054,0.107-0.306,0.126-1.062,0.126H232.572z
					 M233.688,56.106c1.333,0,1.729-0.071,1.873-0.18c0.054-0.035,0.108-0.107,0.108-0.342c0-0.504-0.342-1.135-1.386-1.135
					c-1.062,0-1.981,0.973-1.999,1.566c0,0.036,0,0.09,0.126,0.09H233.688z"/>
				<path fill="#717071" d="M241.862,56.088c0-0.702,0-0.792-0.486-1.116l-0.162-0.108c-0.072-0.071-0.072-0.27,0.018-0.324
					c0.414-0.144,1.44-0.611,1.801-0.882c0.072,0,0.162,0.036,0.198,0.126c-0.036,0.414-0.036,0.685-0.036,0.847
					c0,0.108,0.072,0.198,0.198,0.198c0.756-0.469,1.603-0.919,2.521-0.919c1.494,0,2.106,1.026,2.106,2.233v3.097
					c0,1.296,0.036,1.476,0.684,1.566l0.396,0.054c0.126,0.09,0.09,0.396-0.036,0.45c-0.54-0.036-1.062-0.054-1.692-0.054
					c-0.648,0-1.188,0.018-1.674,0.054c-0.126-0.054-0.162-0.36-0.036-0.45l0.342-0.054c0.666-0.108,0.684-0.271,0.684-1.566v-2.683
					c0-1.027-0.468-1.783-1.692-1.783c-0.684,0-1.278,0.288-1.531,0.631c-0.234,0.306-0.27,0.558-0.27,1.08v2.755
					c0,1.296,0.036,1.458,0.684,1.566l0.324,0.054c0.126,0.09,0.09,0.396-0.036,0.45c-0.486-0.036-1.008-0.054-1.639-0.054
					c-0.648,0-1.188,0.018-1.692,0.054c-0.126-0.054-0.162-0.36-0.036-0.45l0.378-0.054c0.666-0.091,0.684-0.271,0.684-1.566V56.088
					z"/>
				<path fill="#717071" d="M255.191,54.918c-0.307,0-0.324,0.054-0.324,0.432v3.367c0,1.045,0.126,1.998,1.314,1.998
					c0.18,0,0.342-0.035,0.486-0.09c0.162-0.054,0.396-0.252,0.449-0.252c0.145,0,0.217,0.198,0.181,0.307
					c-0.324,0.378-0.973,0.828-1.891,0.828c-1.549,0-1.872-0.864-1.872-1.945V55.44c0-0.486-0.019-0.521-0.379-0.521h-0.504
					c-0.107-0.072-0.126-0.271-0.054-0.379c0.522-0.162,0.972-0.396,1.152-0.558c0.233-0.216,0.576-0.702,0.756-1.062
					c0.09-0.036,0.306-0.036,0.378,0.091v0.81c0,0.324,0.019,0.343,0.324,0.343h1.999c0.216,0.161,0.18,0.647,0.018,0.756H255.191z"
					/>
			</g>
		</g>
		<g>
			<line fill="none" stroke="#4D4D4D" stroke-miterlimit="10" x1="219.648" y1="35.972" x2="219.648" y2="3.824"/>
			<polyline fill="none" stroke="#4D4D4D" stroke-miterlimit="10" points="219.425,3.91 247.151,15.696 219.425,27.48 			"/>
		</g>
	</g>
	<g>
		<g>
			<path fill="#717071" d="M328.563,50.615c1.313-1.026,2.988-1.53,4.861-1.53c0.972,0,2.341,0.198,3.187,0.432
				c0.217,0.055,0.342,0.091,0.504,0.072c0.019,0.414,0.108,1.549,0.252,2.646c-0.09,0.127-0.359,0.145-0.485,0.037
				c-0.271-1.225-1.081-2.629-3.691-2.629c-2.755,0-5.096,1.746-5.096,5.473c0,3.781,2.396,5.87,5.348,5.87
				c2.323,0,3.349-1.513,3.764-2.575c0.126-0.09,0.396-0.054,0.468,0.072c-0.126,0.937-0.594,2.125-0.864,2.467
				c-0.216,0.036-0.433,0.108-0.63,0.181c-0.396,0.144-1.693,0.414-2.846,0.414c-1.62,0-3.168-0.324-4.482-1.206
				c-1.44-0.99-2.557-2.629-2.557-4.952C326.295,53.387,327.194,51.677,328.563,50.615z"/>
			<path fill="#717071" d="M349.223,57.637c0,2.25-1.548,3.871-3.799,3.871c-2.07,0-3.691-1.459-3.691-3.709
				c0-2.27,1.711-3.89,3.836-3.89C347.585,53.91,349.223,55.422,349.223,57.637z M345.352,54.45c-1.188,0-2.07,1.135-2.07,3.115
				c0,1.639,0.738,3.403,2.323,3.403c1.584,0,2.07-1.657,2.07-3.043C347.675,56.395,347.062,54.45,345.352,54.45z"/>
			<path fill="#717071" d="M355.334,59.24c0,1.296,0.036,1.476,0.685,1.566l0.433,0.054c0.125,0.09,0.09,0.396-0.036,0.45
				c-0.595-0.036-1.116-0.054-1.747-0.054c-0.648,0-1.188,0.018-1.729,0.054c-0.126-0.054-0.162-0.36-0.036-0.45l0.414-0.054
				c0.667-0.091,0.685-0.271,0.685-1.566v-8.139c0-1.062-0.018-1.171-0.559-1.494l-0.18-0.108c-0.09-0.054-0.09-0.307,0-0.36
				c0.45-0.144,1.297-0.414,1.944-0.756c0.072,0,0.145,0.036,0.181,0.108c-0.019,0.54-0.055,1.439-0.055,2.232V59.24z"/>
			<path fill="#717071" d="M362.875,59.24c0,1.296,0.035,1.476,0.684,1.566l0.433,0.054c0.126,0.09,0.09,0.396-0.036,0.45
				c-0.595-0.036-1.116-0.054-1.747-0.054c-0.647,0-1.188,0.018-1.729,0.054c-0.126-0.054-0.162-0.36-0.036-0.45l0.414-0.054
				c0.667-0.091,0.685-0.271,0.685-1.566v-8.139c0-1.062-0.018-1.171-0.558-1.494l-0.181-0.108c-0.09-0.054-0.09-0.307,0-0.36
				c0.45-0.144,1.297-0.414,1.944-0.756c0.072,0,0.145,0.036,0.181,0.108c-0.019,0.54-0.054,1.439-0.054,2.232V59.24z"/>
			<path fill="#717071" d="M371.551,57.529c0.271-0.09,0.307-0.252,0.307-0.522l0.018-0.828c0.018-0.666-0.198-1.566-1.314-1.566
				c-0.504,0-1.116,0.252-1.152,0.811c-0.018,0.288-0.036,0.504-0.18,0.612c-0.271,0.216-0.757,0.342-1.026,0.342
				c-0.162,0-0.253-0.09-0.253-0.252c0-0.937,2.035-2.215,3.35-2.215c1.297,0,1.927,0.757,1.873,2.106l-0.108,3.133
				c-0.036,0.829,0.126,1.566,0.828,1.566c0.18,0,0.342-0.054,0.45-0.107c0.09-0.054,0.18-0.126,0.234-0.126
				c0.071,0,0.126,0.108,0.126,0.233c0,0.091-0.631,0.793-1.513,0.793c-0.433,0-0.864-0.162-1.17-0.559
				c-0.072-0.107-0.181-0.252-0.289-0.252c-0.126,0-0.342,0.162-0.702,0.36c-0.396,0.216-0.792,0.45-1.296,0.45
				c-0.522,0-0.954-0.145-1.261-0.414c-0.342-0.307-0.558-0.756-0.558-1.261c0-0.702,0.342-1.116,1.494-1.53L371.551,57.529z
				 M370.435,60.698c0.36,0,0.918-0.27,1.099-0.45c0.216-0.216,0.216-0.468,0.233-0.846l0.036-1.062c0-0.198-0.072-0.234-0.18-0.234
				c-0.108,0-0.414,0.072-0.738,0.181c-1.062,0.359-1.585,0.63-1.585,1.332C369.3,59.924,369.517,60.698,370.435,60.698z"/>
			<path fill="#717071" d="M378.786,51.101c0-1.062-0.019-1.171-0.559-1.494l-0.18-0.108c-0.091-0.054-0.091-0.307,0-0.36
				c0.414-0.161,1.278-0.396,1.962-0.756c0.072,0,0.145,0.036,0.181,0.108c-0.036,0.63-0.072,1.439-0.072,2.232v3.402
				c0,0.307,0.072,0.379,0.181,0.379c0.468-0.271,1.188-0.595,2.07-0.595c2.053,0,3.438,1.549,3.438,3.529
				c0,2.395-1.729,4.069-4.141,4.069c-0.667,0-1.171-0.126-1.53-0.234c-0.379-0.126-0.612-0.234-0.757-0.234
				c-0.144,0-0.288,0.145-0.378,0.271c-0.018,0.019-0.036,0.019-0.072,0.019c-0.072,0-0.144-0.037-0.18-0.108
				c0.018-0.252,0.036-0.595,0.036-1.53V51.101z M380.118,58.807c0,0.631,0.144,1.188,0.45,1.566
				c0.307,0.379,0.792,0.595,1.368,0.595c1.692,0,2.358-1.44,2.358-2.989c0-1.854-0.954-3.295-2.736-3.295
				c-0.54,0-0.973,0.126-1.225,0.288c-0.18,0.126-0.216,0.324-0.216,1.026V58.807z"/>
			<path fill="#717071" d="M397.403,57.637c0,2.25-1.548,3.871-3.799,3.871c-2.071,0-3.691-1.459-3.691-3.709
				c0-2.27,1.711-3.89,3.835-3.89C395.765,53.91,397.403,55.422,397.403,57.637z M393.532,54.45c-1.188,0-2.07,1.135-2.07,3.115
				c0,1.639,0.738,3.403,2.322,3.403c1.585,0,2.071-1.657,2.071-3.043C395.855,56.395,395.242,54.45,393.532,54.45z"/>
			<path fill="#717071" d="M402.339,56.088c0-0.702,0-0.792-0.486-1.116l-0.162-0.108c-0.071-0.071-0.071-0.27,0.019-0.324
				c0.414-0.144,1.368-0.611,1.818-0.882c0.09,0.019,0.144,0.054,0.144,0.126v1.045c0,0.09,0.019,0.144,0.055,0.162
				c0.63-0.522,1.314-1.081,1.98-1.081c0.45,0,0.81,0.288,0.81,0.721c0,0.594-0.485,0.828-0.773,0.828
				c-0.181,0-0.271-0.054-0.396-0.126c-0.27-0.18-0.54-0.288-0.792-0.288c-0.288,0-0.505,0.162-0.648,0.36
				c-0.18,0.252-0.234,0.773-0.234,1.386v2.449c0,1.296,0.036,1.513,0.721,1.566l0.648,0.054c0.126,0.09,0.09,0.396-0.036,0.45
				c-0.847-0.036-1.369-0.054-1.999-0.054c-0.647,0-1.188,0.018-1.656,0.054c-0.126-0.054-0.162-0.36-0.036-0.45l0.342-0.054
				c0.666-0.108,0.685-0.271,0.685-1.566V56.088z"/>
			<path fill="#717071" d="M413.729,57.529c0.271-0.09,0.307-0.252,0.307-0.522l0.018-0.828c0.019-0.666-0.198-1.566-1.314-1.566
				c-0.504,0-1.116,0.252-1.152,0.811c-0.018,0.288-0.036,0.504-0.18,0.612c-0.271,0.216-0.757,0.342-1.026,0.342
				c-0.162,0-0.252-0.09-0.252-0.252c0-0.937,2.034-2.215,3.349-2.215c1.296,0,1.927,0.757,1.872,2.106l-0.107,3.133
				c-0.036,0.829,0.126,1.566,0.828,1.566c0.18,0,0.342-0.054,0.45-0.107c0.09-0.054,0.18-0.126,0.234-0.126
				c0.071,0,0.126,0.108,0.126,0.233c0,0.091-0.631,0.793-1.513,0.793c-0.433,0-0.864-0.162-1.171-0.559
				c-0.071-0.107-0.18-0.252-0.287-0.252c-0.127,0-0.343,0.162-0.703,0.36c-0.396,0.216-0.792,0.45-1.296,0.45
				c-0.522,0-0.954-0.145-1.261-0.414c-0.342-0.307-0.558-0.756-0.558-1.261c0-0.702,0.342-1.116,1.494-1.53L413.729,57.529z
				 M412.613,60.698c0.36,0,0.918-0.27,1.099-0.45c0.216-0.216,0.216-0.468,0.233-0.846l0.036-1.062c0-0.198-0.071-0.234-0.18-0.234
				s-0.414,0.072-0.738,0.181c-1.062,0.359-1.585,0.63-1.585,1.332C411.479,59.924,411.695,60.698,412.613,60.698z"/>
			<path fill="#717071" d="M422.679,54.918c-0.306,0-0.324,0.054-0.324,0.432v3.367c0,1.045,0.126,1.998,1.314,1.998
				c0.181,0,0.343-0.035,0.486-0.09c0.162-0.054,0.396-0.252,0.45-0.252c0.145,0,0.216,0.198,0.18,0.307
				c-0.324,0.378-0.972,0.828-1.891,0.828c-1.548,0-1.872-0.864-1.872-1.945V55.44c0-0.486-0.019-0.521-0.378-0.521h-0.504
				c-0.108-0.072-0.127-0.271-0.055-0.379c0.522-0.162,0.973-0.396,1.152-0.558c0.234-0.216,0.576-0.702,0.756-1.062
				c0.091-0.036,0.307-0.036,0.379,0.091v0.81c0,0.324,0.018,0.343,0.324,0.343h1.998c0.216,0.161,0.18,0.647,0.018,0.756H422.679z"
				/>
			<path fill="#717071" d="M429.785,56.088c0-0.702,0-0.792-0.486-1.116l-0.162-0.108c-0.072-0.071-0.072-0.27,0.018-0.324
				c0.414-0.144,1.44-0.611,1.854-0.882c0.091,0,0.162,0.036,0.181,0.108c-0.036,0.63-0.072,1.494-0.072,2.232v3.241
				c0,1.296,0.036,1.476,0.684,1.566l0.379,0.054c0.126,0.09,0.09,0.396-0.036,0.45c-0.54-0.036-1.062-0.054-1.692-0.054
				c-0.648,0-1.188,0.018-1.693,0.054c-0.125-0.054-0.161-0.36-0.035-0.45l0.378-0.054c0.666-0.091,0.685-0.271,0.685-1.566V56.088z
				 M431.279,50.958c0,0.647-0.45,0.936-0.954,0.936c-0.559,0-0.919-0.414-0.919-0.9c0-0.594,0.433-0.972,0.973-0.972
				S431.279,50.453,431.279,50.958z"/>
			<path fill="#717071" d="M443.376,57.637c0,2.25-1.548,3.871-3.799,3.871c-2.07,0-3.691-1.459-3.691-3.709
				c0-2.27,1.711-3.89,3.835-3.89C441.738,53.91,443.376,55.422,443.376,57.637z M439.505,54.45c-1.188,0-2.07,1.135-2.07,3.115
				c0,1.639,0.738,3.403,2.322,3.403c1.585,0,2.071-1.657,2.071-3.043C441.828,56.395,441.216,54.45,439.505,54.45z"/>
			<path fill="#717071" d="M448.277,56.088c0-0.702,0-0.792-0.486-1.116l-0.162-0.108c-0.072-0.071-0.072-0.27,0.019-0.324
				c0.414-0.144,1.44-0.611,1.8-0.882c0.072,0,0.162,0.036,0.198,0.126c-0.036,0.414-0.036,0.685-0.036,0.847
				c0,0.108,0.072,0.198,0.198,0.198c0.757-0.469,1.603-0.919,2.521-0.919c1.495,0,2.107,1.026,2.107,2.233v3.097
				c0,1.296,0.035,1.476,0.684,1.566l0.396,0.054c0.126,0.09,0.09,0.396-0.036,0.45c-0.54-0.036-1.062-0.054-1.692-0.054
				c-0.648,0-1.188,0.018-1.675,0.054c-0.126-0.054-0.162-0.36-0.036-0.45l0.343-0.054c0.666-0.108,0.684-0.271,0.684-1.566v-2.683
				c0-1.027-0.468-1.783-1.692-1.783c-0.684,0-1.278,0.288-1.53,0.631c-0.234,0.306-0.271,0.558-0.271,1.08v2.755
				c0,1.296,0.036,1.458,0.685,1.566l0.324,0.054c0.126,0.09,0.09,0.396-0.036,0.45c-0.486-0.036-1.008-0.054-1.639-0.054
				c-0.648,0-1.188,0.018-1.692,0.054c-0.126-0.054-0.162-0.36-0.036-0.45l0.378-0.054c0.667-0.091,0.685-0.271,0.685-1.566V56.088z
				"/>
		</g>
	</g>
	<g>
		<line fill="none" stroke="#4D4D4D" stroke-miterlimit="10" x1="381.829" y1="9.553" x2="402.518" y2="30.242"/>
		<line fill="none" stroke="#4D4D4D" stroke-miterlimit="10" x1="402.518" y1="9.553" x2="381.828" y2="30.243"/>
	</g>
	<g>
		<g>
			<g>
				<path fill="#717071" d="M37.537,57.079c-0.126-0.396-0.198-0.45-0.738-0.45H34.08c-0.45,0-0.558,0.054-0.685,0.433l-0.63,1.891
					c-0.27,0.811-0.396,1.296-0.396,1.494c0,0.216,0.09,0.324,0.522,0.36l0.594,0.054c0.126,0.09,0.126,0.378-0.036,0.45
					c-0.468-0.036-1.026-0.036-1.873-0.054c-0.594,0-1.242,0.035-1.729,0.054c-0.108-0.072-0.144-0.36-0.036-0.45l0.595-0.054
					c0.432-0.036,0.828-0.234,1.08-0.882c0.324-0.829,0.828-1.999,1.584-4.016l1.836-4.861c0.252-0.648,0.36-0.99,0.306-1.279
					c0.432-0.125,0.738-0.449,0.936-0.684c0.108,0,0.234,0.036,0.271,0.162c0.234,0.792,0.522,1.62,0.792,2.412l2.467,7.238
					c0.522,1.549,0.756,1.818,1.53,1.909l0.486,0.054c0.126,0.09,0.09,0.378,0,0.45c-0.738-0.036-1.368-0.054-2.179-0.054
					c-0.864,0-1.548,0.035-2.07,0.054c-0.145-0.072-0.162-0.36-0.036-0.45l0.522-0.054c0.378-0.036,0.63-0.145,0.63-0.324
					c0-0.198-0.09-0.522-0.234-0.954L37.537,57.079z M33.972,55.476c-0.144,0.415-0.126,0.433,0.378,0.433h2.214
					c0.522,0,0.559-0.072,0.396-0.559l-0.973-2.935c-0.144-0.433-0.306-0.919-0.414-1.134h-0.036
					c-0.054,0.09-0.234,0.521-0.432,1.062L33.972,55.476z"/>
				<path fill="#717071" d="M51.983,58.627c0,1.422,0.019,2.088,0.522,2.088c0.198,0,0.504-0.09,0.774-0.18
					c0.126,0.036,0.144,0.486-0.019,0.576c-0.756,0.108-1.872,0.379-2.376,0.576c-0.108,0-0.198-0.054-0.198-0.144v-0.307
					c0-0.27,0-0.485-0.036-0.558h-0.072c-0.792,0.54-1.404,0.828-2.269,0.828c-1.999,0-3.331-1.566-3.331-3.457
					c0-2.521,1.909-4.142,4.357-4.142c0.612,0,1.008,0.091,1.206,0.162c0.09,0,0.108-0.108,0.108-0.252v-2.719
					c0-1.062-0.018-1.171-0.559-1.494l-0.18-0.108c-0.09-0.054-0.09-0.307,0-0.36c0.45-0.144,1.296-0.414,1.944-0.756
					c0.072,0,0.145,0.036,0.18,0.108c-0.018,0.54-0.054,1.439-0.054,2.232V58.627z M50.651,55.926c0-0.359-0.072-0.521-0.198-0.702
					c-0.27-0.378-0.81-0.756-1.513-0.756c-1.638,0-2.484,1.423-2.484,2.989c0,1.638,0.918,3.187,2.683,3.187
					c0.486,0,1.099-0.216,1.387-0.505c0.108-0.107,0.126-0.377,0.126-0.666V55.926z"/>
				<path fill="#717071" d="M57.718,55.945c-0.27-0.667-0.432-1.243-1.081-1.333l-0.36-0.054c-0.108-0.144-0.09-0.396,0.054-0.45
					c0.45,0.036,1.08,0.055,1.692,0.055c0.486,0,0.846-0.019,1.458-0.055c0.126,0.072,0.145,0.36,0.019,0.45l-0.216,0.036
					c-0.558,0.09-0.576,0.18-0.396,0.721c0.414,1.242,0.936,2.502,1.35,3.438c0.162,0.36,0.234,0.522,0.288,0.576
					c0.072-0.054,0.198-0.306,0.342-0.685c0.234-0.611,0.846-2.178,1.026-2.646c0.252-0.63,0.324-1.008,0.324-1.116
					c0-0.162-0.108-0.234-0.324-0.271l-0.414-0.054c-0.108-0.126-0.09-0.378,0.036-0.45c0.558,0.036,1.008,0.055,1.35,0.055
					c0.45,0,0.756-0.019,1.26-0.055c0.126,0.072,0.144,0.342,0.036,0.45l-0.27,0.036c-0.63,0.09-0.792,0.559-1.314,1.566
					c-0.252,0.486-1.369,3.097-1.657,3.835c-0.18,0.45-0.36,0.864-0.594,1.477c-0.036,0.054-0.108,0.072-0.18,0.072
					c-0.09,0-0.18-0.019-0.234-0.072c-0.145-0.504-0.414-1.206-0.685-1.872L57.718,55.945z"/>
				<path fill="#717071" d="M68.988,56.647c-0.468,0-0.486,0.035-0.486,0.486c0,1.818,1.062,3.367,2.989,3.367
					c0.594,0,1.098-0.181,1.656-0.883c0.18-0.055,0.306,0.054,0.324,0.216c-0.594,1.225-1.891,1.675-2.827,1.675
					c-1.17,0-2.088-0.504-2.61-1.188c-0.541-0.702-0.757-1.548-0.757-2.341c0-2.215,1.459-4.069,3.619-4.069
					c1.549,0,2.557,1.062,2.557,2.143c0,0.253-0.036,0.396-0.072,0.469c-0.054,0.107-0.306,0.126-1.062,0.126H68.988z
					 M70.104,56.106c1.333,0,1.729-0.071,1.873-0.18c0.054-0.035,0.108-0.107,0.108-0.342c0-0.504-0.342-1.135-1.386-1.135
					c-1.062,0-1.981,0.973-1.999,1.566c0,0.036,0,0.09,0.126,0.09H70.104z"/>
				<path fill="#717071" d="M78.26,56.088c0-0.702,0-0.792-0.486-1.116l-0.162-0.108c-0.072-0.071-0.072-0.27,0.018-0.324
					c0.414-0.144,1.369-0.611,1.819-0.882c0.09,0.019,0.144,0.054,0.144,0.126v1.045c0,0.09,0.019,0.144,0.054,0.162
					c0.63-0.522,1.314-1.081,1.981-1.081c0.45,0,0.81,0.288,0.81,0.721c0,0.594-0.486,0.828-0.774,0.828
					c-0.18,0-0.27-0.054-0.396-0.126c-0.27-0.18-0.54-0.288-0.792-0.288c-0.288,0-0.504,0.162-0.648,0.36
					c-0.18,0.252-0.234,0.773-0.234,1.386v2.449c0,1.296,0.036,1.513,0.721,1.566l0.648,0.054c0.126,0.09,0.09,0.396-0.036,0.45
					c-0.846-0.036-1.368-0.054-1.999-0.054c-0.648,0-1.188,0.018-1.656,0.054c-0.126-0.054-0.162-0.36-0.036-0.45l0.342-0.054
					c0.667-0.108,0.685-0.271,0.685-1.566V56.088z"/>
				<path fill="#717071" d="M88.869,54.918c-0.306,0-0.324,0.054-0.324,0.432v3.367c0,1.045,0.126,1.998,1.314,1.998
					c0.18,0,0.342-0.035,0.486-0.09c0.162-0.054,0.396-0.252,0.45-0.252c0.144,0,0.216,0.198,0.18,0.307
					c-0.324,0.378-0.972,0.828-1.891,0.828c-1.548,0-1.873-0.864-1.873-1.945V55.44c0-0.486-0.018-0.521-0.378-0.521H86.33
					c-0.108-0.072-0.126-0.271-0.054-0.379c0.522-0.162,0.972-0.396,1.152-0.558c0.234-0.216,0.576-0.702,0.756-1.062
					c0.09-0.036,0.307-0.036,0.378,0.091v0.81c0,0.324,0.018,0.343,0.324,0.343h1.999c0.216,0.161,0.18,0.647,0.018,0.756H88.869z"
					/>
				<path fill="#717071" d="M95.975,56.088c0-0.702,0-0.792-0.486-1.116l-0.162-0.108c-0.072-0.071-0.072-0.27,0.018-0.324
					c0.414-0.144,1.44-0.611,1.854-0.882c0.09,0,0.162,0.036,0.18,0.108c-0.036,0.63-0.072,1.494-0.072,2.232v3.241
					c0,1.296,0.036,1.476,0.684,1.566l0.378,0.054c0.126,0.09,0.09,0.396-0.036,0.45c-0.54-0.036-1.062-0.054-1.692-0.054
					c-0.648,0-1.188,0.018-1.693,0.054c-0.126-0.054-0.162-0.36-0.036-0.45l0.378-0.054c0.667-0.091,0.684-0.271,0.684-1.566V56.088
					z M97.469,50.958c0,0.647-0.45,0.936-0.954,0.936c-0.558,0-0.918-0.414-0.918-0.9c0-0.594,0.432-0.972,0.973-0.972
					C97.109,50.021,97.469,50.453,97.469,50.958z"/>
				<path fill="#717071" d="M106.707,54.234c0.162,0.396,0.288,0.973,0.288,1.458c-0.072,0.127-0.342,0.162-0.432,0.055
					c-0.306-0.793-0.846-1.314-1.584-1.314c-0.702,0-1.152,0.45-1.152,1.098c0,0.738,0.756,1.135,1.387,1.495
					c0.954,0.54,1.836,1.152,1.836,2.431c0,1.368-1.26,2.053-2.593,2.053c-0.846,0-1.477-0.18-1.927-0.54
					c-0.144-0.343-0.252-1.225-0.216-1.819c0.09-0.107,0.324-0.125,0.414-0.018c0.306,0.99,0.882,1.854,1.909,1.854
					c0.648,0,1.206-0.378,1.206-1.152c0-0.828-0.72-1.278-1.386-1.656c-1.044-0.595-1.783-1.225-1.783-2.215
					c0-1.314,1.081-2.053,2.449-2.053C105.879,53.91,106.545,54.09,106.707,54.234z"/>
				<path fill="#717071" d="M112.772,56.647c-0.468,0-0.486,0.035-0.486,0.486c0,1.818,1.062,3.367,2.989,3.367
					c0.594,0,1.098-0.181,1.656-0.883c0.18-0.055,0.306,0.054,0.324,0.216c-0.594,1.225-1.891,1.675-2.827,1.675
					c-1.17,0-2.088-0.504-2.61-1.188c-0.541-0.702-0.757-1.548-0.757-2.341c0-2.215,1.459-4.069,3.619-4.069
					c1.549,0,2.557,1.062,2.557,2.143c0,0.253-0.036,0.396-0.072,0.469c-0.054,0.107-0.306,0.126-1.062,0.126H112.772z
					 M113.889,56.106c1.333,0,1.729-0.071,1.873-0.18c0.054-0.035,0.108-0.107,0.108-0.342c0-0.504-0.342-1.135-1.386-1.135
					c-1.062,0-1.981,0.973-1.999,1.566c0,0.036,0,0.09,0.126,0.09H113.889z"/>
			</g>
		</g>
		<g>
			<polygon fill="none" stroke="#4D4D4D" stroke-miterlimit="10" points="86.927,35.15 63.259,35.15 63.259,4.646 81.142,4.646 
				81.142,10.431 86.927,9.97 			"/>
			<line fill="none" stroke="#4D4D4D" stroke-miterlimit="10" x1="81.142" y1="4.646" x2="86.927" y2="9.97"/>
		</g>
	</g>
</g>
</svg>
